<svg xmlns="http://www.w3.org/2000/svg" xmlns:xlink="http://www.w3.org/1999/xlink" width="500" zoomAndPan="magnify" viewBox="0 0 375 374.999991" height="500" preserveAspectRatio="xMidYMid meet" version="1.0"><defs><clipPath id="a6866a56ae"><path d="M 266 138 L 337.5 138 L 337.5 325 L 266 325 Z M 266 138 " clip-rule="nonzero"/></clipPath></defs><path fill="#221f1f" d="M 237.027344 373.621094 L 101.851562 373.621094 C 81.878906 373.621094 65.738281 357.480469 65.738281 337.507812 L 65.738281 73.816406 L 273.140625 73.816406 L 273.140625 337.507812 C 273.140625 357.480469 257 373.621094 237.027344 373.621094 Z M 237.027344 373.621094 " fill-opacity="1" fill-rule="nonzero"/><path fill="#e6b908" d="M 228.148438 357.28125 L 110.527344 357.28125 C 96 357.28125 84.300781 342.753906 84.300781 324.796875 L 84.300781 95.605469 L 254.375 95.605469 L 254.375 324.796875 C 254.375 342.753906 242.675781 357.28125 228.148438 357.28125 Z M 228.148438 357.28125 " fill-opacity="1" fill-rule="nonzero"/><g clip-path="url(#a6866a56ae)"><path fill="#221f1f" d="M 308.648438 138.984375 L 266.480469 138.984375 L 266.480469 171.261719 L 293.316406 171.261719 C 303.605469 171.261719 310.867188 183.367188 310.867188 193.660156 L 310.867188 271.738281 C 310.867188 282.027344 303.605469 292.316406 293.316406 292.316406 L 266.480469 292.316406 L 266.480469 324.597656 L 308.648438 324.597656 C 325.59375 324.597656 339.113281 309.464844 339.113281 292.515625 L 339.113281 172.878906 C 339.113281 155.929688 325.59375 138.984375 308.648438 138.984375 Z M 308.648438 138.984375 " fill-opacity="1" fill-rule="nonzero"/></g><path fill="#ebdf90" d="M 147.246094 91.976562 L 86.71875 91.976562 C 73 91.976562 61.703125 80.675781 61.703125 66.957031 L 61.703125 59.492188 C 61.703125 34.878906 81.472656 15.105469 106.089844 15.105469 C 130.703125 15.105469 150.472656 34.878906 150.472656 59.492188 L 150.472656 88.746094 C 150.675781 90.5625 149.0625 91.976562 147.246094 91.976562 Z M 147.246094 91.976562 " fill-opacity="1" fill-rule="nonzero"/><path fill="#ebdf90" d="M 185.378906 103.878906 L 146.640625 103.878906 C 132.921875 103.878906 121.625 92.582031 121.625 78.859375 L 121.625 47.789062 C 121.625 23.175781 141.394531 3.40625 166.007812 3.40625 C 190.621094 3.40625 210.394531 23.175781 210.394531 47.789062 L 210.394531 78.859375 C 210.394531 92.582031 199.097656 103.878906 185.378906 103.878906 Z M 185.378906 103.878906 " fill-opacity="1" fill-rule="nonzero"/><path fill="#ebdf90" d="M 255.585938 96.011719 L 216.851562 96.011719 C 203.132812 96.011719 191.832031 84.710938 191.832031 70.992188 L 191.832031 63.527344 C 191.832031 38.914062 211.605469 19.140625 236.21875 19.140625 C 260.832031 19.140625 280.605469 38.914062 280.605469 63.527344 L 280.605469 70.992188 C 280.605469 84.710938 269.304688 96.011719 255.585938 96.011719 Z M 255.585938 96.011719 " fill-opacity="1" fill-rule="nonzero"/><path fill="#ebdf90" d="M 287.664062 45.371094 C 272.9375 45.371094 261.035156 57.273438 261.035156 71.800781 L 261.035156 100.046875 C 261.035156 102.0625 262.648438 103.878906 264.867188 103.878906 L 287.464844 103.878906 C 303 103.878906 315.507812 91.167969 315.507812 75.835938 L 315.507812 73.414062 C 315.507812 57.878906 303 45.371094 287.664062 45.371094 Z M 287.664062 45.371094 " fill-opacity="1" fill-rule="nonzero"/><path fill="#ebdf90" d="M 286.253906 100.449219 C 286.253906 85.71875 274.351562 73.816406 259.824219 73.816406 L 231.578125 73.816406 C 229.5625 73.816406 227.746094 75.429688 227.746094 77.648438 L 227.746094 100.246094 C 227.746094 115.78125 240.457031 128.289062 255.789062 128.289062 L 258.210938 128.289062 C 273.746094 128.289062 286.253906 115.78125 286.253906 100.449219 Z M 286.253906 100.449219 " fill-opacity="1" fill-rule="nonzero"/><path fill="#ebdf90" d="M 66.34375 110.132812 C 81.070312 110.132812 92.972656 98.230469 92.972656 83.5 L 92.972656 55.253906 C 92.972656 53.238281 91.359375 51.421875 89.140625 51.421875 L 66.542969 51.421875 C 51.210938 51.625 38.5 64.132812 38.5 79.667969 L 38.5 82.089844 C 38.5 97.421875 51.011719 110.132812 66.34375 110.132812 Z M 66.34375 110.132812 " fill-opacity="1" fill-rule="nonzero"/><path fill="#ebdf90" d="M 197.28125 110.535156 L 197.683594 110.132812 C 204.542969 103.273438 204.542969 91.976562 197.683594 85.117188 L 161.167969 48.394531 C 157.9375 45.167969 152.691406 45.167969 149.261719 48.394531 L 114.5625 83.300781 C 107.097656 90.765625 107.097656 103.070312 114.5625 110.535156 C 137.359375 133.335938 174.484375 133.335938 197.28125 110.535156 Z M 197.28125 110.535156 " fill-opacity="1" fill-rule="nonzero"/><path fill="#ebdf90" d="M 64.730469 70.183594 L 100.4375 70.183594 C 109.316406 70.183594 116.578125 77.449219 116.578125 86.324219 L 116.578125 98.835938 C 116.578125 113.964844 104.273438 126.070312 89.34375 126.070312 C 74.210938 126.070312 62.105469 113.765625 62.105469 98.835938 L 62.105469 73.011719 C 61.703125 71.394531 63.113281 70.183594 64.730469 70.183594 Z M 64.730469 70.183594 " fill-opacity="1" fill-rule="nonzero"/><path fill="#c29c07" d="M 120.613281 333.472656 C 114.160156 333.472656 108.914062 328.226562 108.914062 321.769531 L 108.914062 156.9375 C 108.914062 150.484375 114.160156 145.238281 120.613281 145.238281 C 127.070312 145.238281 132.316406 150.484375 132.316406 156.9375 L 132.316406 321.769531 C 132.316406 328.226562 127.070312 333.472656 120.613281 333.472656 Z M 120.613281 333.472656 " fill-opacity="1" fill-rule="nonzero"/><path fill="#c29c07" d="M 168.832031 333.472656 C 162.378906 333.472656 157.132812 328.226562 157.132812 321.769531 L 157.132812 156.9375 C 157.132812 150.484375 162.378906 145.238281 168.832031 145.238281 C 175.289062 145.238281 180.535156 150.484375 180.535156 156.9375 L 180.535156 321.769531 C 180.332031 328.226562 175.085938 333.472656 168.832031 333.472656 Z M 168.832031 333.472656 " fill-opacity="1" fill-rule="nonzero"/><path fill="#c29c07" d="M 216.851562 333.472656 C 210.394531 333.472656 205.148438 328.226562 205.148438 321.769531 L 205.148438 156.9375 C 205.148438 150.484375 210.394531 145.238281 216.851562 145.238281 C 223.308594 145.238281 228.550781 150.484375 228.550781 156.9375 L 228.550781 321.769531 C 228.550781 328.226562 223.308594 333.472656 216.851562 333.472656 Z M 216.851562 333.472656 " fill-opacity="1" fill-rule="nonzero"/><path fill="#ebdf90" d="M 213.621094 180.140625 C 225.121094 180.140625 234.605469 170.660156 234.605469 159.359375 L 234.605469 80.878906 C 234.605469 72.203125 227.542969 65.34375 219.070312 65.34375 L 208.578125 65.34375 C 199.902344 65.34375 193.042969 72.40625 193.042969 80.878906 L 193.042969 159.160156 C 192.84375 170.660156 202.324219 180.140625 213.621094 180.140625 Z M 213.621094 180.140625 " fill-opacity="1" fill-rule="nonzero"/></svg>