<svg xmlns="http://www.w3.org/2000/svg" xmlns:xlink="http://www.w3.org/1999/xlink" width="1920" zoomAndPan="magnify" viewBox="0 0 1440 374.999991" height="500" preserveAspectRatio="xMidYMid meet" version="1.0"><defs><g/><clipPath id="a7c9d0b3b6"><path d="M 1302 139 L 1340.695312 139 L 1340.695312 240 L 1302 240 Z M 1302 139 " clip-rule="nonzero"/></clipPath><clipPath id="9e5d65206b"><path d="M 1179.445312 92 L 1210 92 L 1210 124 L 1179.445312 124 Z M 1179.445312 92 " clip-rule="nonzero"/></clipPath><clipPath id="8228a2c027"><path d="M 1087.542969 37.5 L 1096.542969 37.5 L 1096.542969 327 L 1087.542969 327 Z M 1087.542969 37.5 " clip-rule="nonzero"/></clipPath></defs><path fill="#221f1f" d="M 1286.820312 265.433594 L 1214.078125 265.433594 C 1203.328125 265.433594 1194.640625 256.746094 1194.640625 245.996094 L 1194.640625 104.09375 L 1306.253906 104.09375 L 1306.253906 245.996094 C 1306.253906 256.746094 1297.566406 265.433594 1286.820312 265.433594 Z M 1286.820312 265.433594 " fill-opacity="1" fill-rule="nonzero"/><path fill="#e6b908" d="M 1282.042969 256.636719 L 1218.746094 256.636719 C 1210.929688 256.636719 1204.628906 248.820312 1204.628906 239.15625 L 1204.628906 115.820312 L 1296.15625 115.820312 L 1296.15625 239.15625 C 1296.15625 248.820312 1289.859375 256.636719 1282.042969 256.636719 Z M 1282.042969 256.636719 " fill-opacity="1" fill-rule="nonzero"/><g clip-path="url(#a7c9d0b3b6)"><path fill="#221f1f" d="M 1325.363281 139.164062 L 1302.671875 139.164062 L 1302.671875 156.535156 L 1317.109375 156.535156 C 1322.648438 156.535156 1326.558594 163.050781 1326.558594 168.585938 L 1326.558594 210.601562 C 1326.558594 216.140625 1322.648438 221.675781 1317.109375 221.675781 L 1302.671875 221.675781 L 1302.671875 239.050781 L 1325.363281 239.050781 C 1334.484375 239.050781 1341.757812 230.90625 1341.757812 221.785156 L 1341.757812 157.402344 C 1341.757812 148.28125 1334.484375 139.164062 1325.363281 139.164062 Z M 1325.363281 139.164062 " fill-opacity="1" fill-rule="nonzero"/></g><path fill="#ebdf90" d="M 1238.503906 113.867188 L 1205.933594 113.867188 C 1198.550781 113.867188 1192.472656 107.785156 1192.472656 100.402344 L 1192.472656 96.386719 C 1192.472656 83.140625 1203.109375 72.5 1216.355469 72.5 C 1229.601562 72.5 1240.242188 83.140625 1240.242188 96.386719 L 1240.242188 112.128906 C 1240.351562 113.105469 1239.480469 113.867188 1238.503906 113.867188 Z M 1238.503906 113.867188 " fill-opacity="1" fill-rule="nonzero"/><path fill="#ebdf90" d="M 1259.023438 120.273438 L 1238.179688 120.273438 C 1230.796875 120.273438 1224.714844 114.191406 1224.714844 106.808594 L 1224.714844 90.089844 C 1224.714844 76.84375 1235.355469 66.203125 1248.601562 66.203125 C 1261.847656 66.203125 1272.488281 76.84375 1272.488281 90.089844 L 1272.488281 106.808594 C 1272.488281 114.191406 1266.410156 120.273438 1259.023438 120.273438 Z M 1259.023438 120.273438 " fill-opacity="1" fill-rule="nonzero"/><path fill="#ebdf90" d="M 1296.808594 116.039062 L 1275.960938 116.039062 C 1268.578125 116.039062 1262.5 109.957031 1262.5 102.574219 L 1262.5 98.558594 C 1262.5 85.3125 1273.140625 74.671875 1286.386719 74.671875 C 1299.632812 74.671875 1310.269531 85.3125 1310.269531 98.558594 L 1310.269531 102.574219 C 1310.269531 109.957031 1304.191406 116.039062 1296.808594 116.039062 Z M 1296.808594 116.039062 " fill-opacity="1" fill-rule="nonzero"/><path fill="#ebdf90" d="M 1314.070312 88.785156 C 1306.144531 88.785156 1299.738281 95.191406 1299.738281 103.007812 L 1299.738281 118.207031 C 1299.738281 119.292969 1300.609375 120.273438 1301.800781 120.273438 L 1313.960938 120.273438 C 1322.324219 120.273438 1329.054688 113.429688 1329.054688 105.179688 L 1329.054688 103.878906 C 1329.054688 95.515625 1322.324219 88.785156 1314.070312 88.785156 Z M 1314.070312 88.785156 " fill-opacity="1" fill-rule="nonzero"/><path fill="#ebdf90" d="M 1313.3125 118.425781 C 1313.3125 110.5 1306.90625 104.09375 1299.089844 104.09375 L 1283.886719 104.09375 C 1282.800781 104.09375 1281.824219 104.960938 1281.824219 106.15625 L 1281.824219 118.316406 C 1281.824219 126.675781 1288.664062 133.410156 1296.917969 133.410156 L 1298.21875 133.410156 C 1306.578125 133.410156 1313.3125 126.675781 1313.3125 118.425781 Z M 1313.3125 118.425781 " fill-opacity="1" fill-rule="nonzero"/><g clip-path="url(#9e5d65206b)"><path fill="#ebdf90" d="M 1194.96875 123.636719 C 1202.894531 123.636719 1209.300781 117.230469 1209.300781 109.304688 L 1209.300781 94.105469 C 1209.300781 93.019531 1208.429688 92.042969 1207.238281 92.042969 L 1195.078125 92.042969 C 1186.824219 92.152344 1179.984375 98.882812 1179.984375 107.242188 L 1179.984375 108.546875 C 1179.984375 116.796875 1186.714844 123.636719 1194.96875 123.636719 Z M 1194.96875 123.636719 " fill-opacity="1" fill-rule="nonzero"/></g><path fill="#ebdf90" d="M 1265.429688 123.855469 L 1265.648438 123.636719 C 1269.339844 119.945312 1269.339844 113.867188 1265.648438 110.175781 L 1245.996094 90.414062 C 1244.257812 88.675781 1241.4375 88.675781 1239.589844 90.414062 L 1220.917969 109.195312 C 1216.898438 113.214844 1216.898438 119.835938 1220.917969 123.855469 C 1233.183594 136.121094 1253.164062 136.121094 1265.429688 123.855469 Z M 1265.429688 123.855469 " fill-opacity="1" fill-rule="nonzero"/><path fill="#ebdf90" d="M 1194.097656 102.140625 L 1213.316406 102.140625 C 1218.09375 102.140625 1222.003906 106.046875 1222.003906 110.824219 L 1222.003906 117.558594 C 1222.003906 125.699219 1215.378906 132.214844 1207.34375 132.214844 C 1199.203125 132.214844 1192.6875 125.589844 1192.6875 117.558594 L 1192.6875 103.660156 C 1192.472656 102.792969 1193.230469 102.140625 1194.097656 102.140625 Z M 1194.097656 102.140625 " fill-opacity="1" fill-rule="nonzero"/><path fill="#c29c07" d="M 1224.171875 243.828125 C 1220.699219 243.828125 1217.875 241.003906 1217.875 237.527344 L 1217.875 148.824219 C 1217.875 145.351562 1220.699219 142.527344 1224.171875 142.527344 C 1227.648438 142.527344 1230.472656 145.351562 1230.472656 148.824219 L 1230.472656 237.527344 C 1230.472656 241.003906 1227.648438 243.828125 1224.171875 243.828125 Z M 1224.171875 243.828125 " fill-opacity="1" fill-rule="nonzero"/><path fill="#c29c07" d="M 1250.121094 243.828125 C 1246.648438 243.828125 1243.824219 241.003906 1243.824219 237.527344 L 1243.824219 148.824219 C 1243.824219 145.351562 1246.648438 142.527344 1250.121094 142.527344 C 1253.597656 142.527344 1256.417969 145.351562 1256.417969 148.824219 L 1256.417969 237.527344 C 1256.3125 241.003906 1253.488281 243.828125 1250.121094 243.828125 Z M 1250.121094 243.828125 " fill-opacity="1" fill-rule="nonzero"/><path fill="#c29c07" d="M 1275.960938 243.828125 C 1272.488281 243.828125 1269.664062 241.003906 1269.664062 237.527344 L 1269.664062 148.824219 C 1269.664062 145.351562 1272.488281 142.527344 1275.960938 142.527344 C 1279.4375 142.527344 1282.257812 145.351562 1282.257812 148.824219 L 1282.257812 237.527344 C 1282.257812 241.003906 1279.4375 243.828125 1275.960938 243.828125 Z M 1275.960938 243.828125 " fill-opacity="1" fill-rule="nonzero"/><path fill="#ebdf90" d="M 1274.226562 161.3125 C 1280.414062 161.3125 1285.515625 156.207031 1285.515625 150.128906 L 1285.515625 107.894531 C 1285.515625 103.226562 1281.71875 99.535156 1277.15625 99.535156 L 1271.511719 99.535156 C 1266.84375 99.535156 1263.152344 103.335938 1263.152344 107.894531 L 1263.152344 150.019531 C 1263.042969 156.207031 1268.144531 161.3125 1274.226562 161.3125 Z M 1274.226562 161.3125 " fill-opacity="1" fill-rule="nonzero"/><g clip-path="url(#8228a2c027)"><path fill="#221f1f" d="M 947.324219 37.5 L 1236.917969 37.5 L 1236.917969 327.09375 L 947.324219 327.09375 Z M 947.324219 37.5 " fill-opacity="1" fill-rule="nonzero"/></g><g fill="#221f1f" fill-opacity="1"><g transform="translate(35.123611, 233.836274)"><g><path d="M 36.761719 -47.980469 L 48.570312 -47.980469 L 48.570312 -65.105469 L 36.761719 -65.105469 L 36.761719 -89.90625 L 14.761719 -89.90625 L 14.761719 -65.105469 L 2.953125 -65.105469 L 2.953125 -47.980469 L 14.761719 -47.980469 L 14.761719 0 L 36.761719 0 Z M 36.761719 -47.980469 "/></g></g></g><g fill="#221f1f" fill-opacity="1"><g transform="translate(86.62574, 233.836274)"><g><path d="M 75.441406 -36.90625 C 75.441406 -54.625 68.351562 -66.582031 50.933594 -66.582031 C 42.371094 -66.582031 35.429688 -62.742188 31.003906 -57.132812 L 31.003906 -110.722656 L 8.859375 -110.722656 L 8.859375 0 L 31.003906 0 L 31.003906 -32.480469 C 31.003906 -41.335938 36.464844 -48.71875 43.402344 -48.71875 C 50.34375 -48.71875 53.296875 -44.585938 53.296875 -36.90625 L 53.296875 0 L 75.441406 0 Z M 75.441406 -36.90625 "/></g></g></g><g fill="#221f1f" fill-opacity="1"><g transform="translate(168.675002, 233.836274)"><g><path d="M 28.9375 -40.304688 C 28.9375 -40.304688 29.675781 -52.410156 43.550781 -52.410156 C 56.984375 -52.410156 58.019531 -40.304688 58.019531 -40.304688 Z M 79.277344 -33.957031 C 79.277344 -54.769531 62.890625 -66.582031 43.109375 -66.582031 C 21.257812 -66.582031 5.167969 -52.851562 5.167969 -32.480469 C 5.167969 -11.808594 20.667969 1.476562 43.109375 1.476562 C 60.382812 1.476562 74.257812 -7.085938 78.097656 -24.210938 L 55.507812 -24.210938 C 55.363281 -19.488281 50.488281 -14.320312 42.664062 -14.320312 C 33.957031 -14.320312 28.640625 -22.292969 28.640625 -29.820312 L 79.128906 -29.820312 C 79.128906 -31.148438 79.277344 -32.625 79.277344 -33.957031 Z M 79.277344 -33.957031 "/></g></g></g><g fill="#221f1f" fill-opacity="1"><g transform="translate(253.143371, 233.836274)"><g/></g></g><g fill="#221f1f" fill-opacity="1"><g transform="translate(290.036056, 233.836274)"><g/></g></g><g fill="#221f1f" fill-opacity="1"><g transform="translate(326.928863, 233.836274)"><g><path d="M 57.28125 -29.378906 C 57.28125 -22.734375 51.671875 -17.273438 45.027344 -17.273438 L 31.003906 -17.273438 L 31.003906 -41.484375 L 45.027344 -41.484375 C 51.671875 -41.484375 57.28125 -35.875 57.28125 -29.378906 Z M 50.34375 -71.304688 C 50.34375 -64.957031 45.027344 -59.644531 38.679688 -59.644531 L 31.003906 -59.644531 L 31.003906 -82.96875 L 38.679688 -82.96875 C 45.027344 -82.96875 50.34375 -77.800781 50.34375 -71.304688 Z M 79.867188 -28.789062 C 79.867188 -42.371094 70.714844 -51.375 59.496094 -54.03125 C 67.023438 -57.429688 71.453125 -65.105469 71.453125 -75.292969 C 71.453125 -89.023438 60.527344 -100.390625 43.402344 -100.390625 L 8.859375 -100.390625 L 8.859375 0 L 49.457031 0 C 68.648438 0 79.867188 -11.515625 79.867188 -28.789062 Z M 79.867188 -28.789062 "/></g></g></g><g fill="#221f1f" fill-opacity="1"><g transform="translate(408.240286, 233.836274)"><g><path d="M 45.617188 -48.71875 C 49.011719 -48.71875 52.261719 -47.683594 54.476562 -45.027344 L 54.769531 -45.027344 L 54.769531 -65.105469 C 53 -65.992188 50.046875 -66.582031 48.128906 -66.582031 C 40.007812 -66.582031 34.398438 -62.003906 31.003906 -57.132812 L 31.003906 -65.105469 L 8.859375 -65.105469 L 8.859375 0 L 31.003906 0 L 31.003906 -32.480469 C 31.003906 -40.304688 37.351562 -48.71875 45.617188 -48.71875 Z M 45.617188 -48.71875 "/></g></g></g><g fill="#221f1f" fill-opacity="1"><g transform="translate(464.464676, 233.836274)"><g><path d="M 28.9375 -40.304688 C 28.9375 -40.304688 29.675781 -52.410156 43.550781 -52.410156 C 56.984375 -52.410156 58.019531 -40.304688 58.019531 -40.304688 Z M 79.277344 -33.957031 C 79.277344 -54.769531 62.890625 -66.582031 43.109375 -66.582031 C 21.257812 -66.582031 5.167969 -52.851562 5.167969 -32.480469 C 5.167969 -11.808594 20.667969 1.476562 43.109375 1.476562 C 60.382812 1.476562 74.257812 -7.085938 78.097656 -24.210938 L 55.507812 -24.210938 C 55.363281 -19.488281 50.488281 -14.320312 42.664062 -14.320312 C 33.957031 -14.320312 28.640625 -22.292969 28.640625 -29.820312 L 79.128906 -29.820312 C 79.128906 -31.148438 79.277344 -32.625 79.277344 -33.957031 Z M 79.277344 -33.957031 "/></g></g></g><g fill="#221f1f" fill-opacity="1"><g transform="translate(548.875069, 233.836274)"><g><path d="M 118.546875 -65.105469 L 94.1875 -65.105469 L 80.753906 -22.585938 L 66.285156 -65.105469 L 49.160156 -65.105469 L 34.839844 -22.585938 L 21.554688 -65.105469 L -2.65625 -65.105469 L 19.78125 0 L 45.175781 0 L 57.722656 -40.597656 L 70.421875 0 L 95.664062 0 Z M 118.546875 -65.105469 "/></g></g></g><g fill="#221f1f" fill-opacity="1"><g transform="translate(664.717986, 233.836274)"><g><path d="M 69.089844 -45.324219 C 67.171875 -60.234375 54.625 -66.582031 37.5 -66.582031 C 15.945312 -66.582031 5.757812 -59.199219 5.757812 -45.914062 C 5.757812 -22.292969 47.832031 -33.070312 47.832031 -19.339844 C 47.832031 -15.796875 43.550781 -13.878906 38.53125 -13.878906 C 33.660156 -13.878906 24.949219 -14.46875 24.949219 -24.210938 L 2.953125 -24.210938 C 4.132812 -5.757812 18.75 1.476562 38.089844 1.476562 C 56.984375 1.476562 70.125 -4.132812 70.125 -19.488281 C 70.125 -46.945312 28.050781 -37.644531 28.050781 -46.800781 C 28.050781 -50.636719 32.625 -52.851562 36.90625 -52.851562 C 41.1875 -52.851562 46.652344 -51.226562 47.390625 -45.324219 Z M 69.089844 -45.324219 "/></g></g></g><g fill="#221f1f" fill-opacity="1"><g transform="translate(739.241131, 233.836274)"><g/></g></g><g fill="#221f1f" fill-opacity="1"><g transform="translate(776.133816, 233.836274)"><g><path d="M 42.074219 -49.308594 C 49.75 -49.308594 54.625 -45.324219 54.917969 -38.976562 L 76.914062 -38.976562 C 75.882812 -54.03125 62.449219 -66.582031 41.335938 -66.582031 C 19.636719 -66.582031 5.167969 -51.082031 5.167969 -32.480469 C 5.167969 -13.878906 18.75 1.476562 41.335938 1.476562 C 61.121094 1.476562 74.257812 -9.742188 76.472656 -24.210938 L 54.917969 -24.210938 C 54.179688 -18.304688 48.867188 -15.355469 42.074219 -15.355469 C 31.742188 -15.355469 28.789062 -24.800781 28.789062 -32.332031 C 28.789062 -39.710938 32.035156 -49.308594 42.074219 -49.308594 Z M 42.074219 -49.308594 "/></g></g></g><g fill="#221f1f" fill-opacity="1"><g transform="translate(857.592794, 233.836274)"><g><path d="M 42.371094 -15.355469 C 30.410156 -15.355469 27.164062 -24.0625 27.164062 -32.332031 C 27.164062 -40.449219 30.707031 -49.160156 42.371094 -49.160156 C 53.886719 -49.160156 57.429688 -40.449219 57.429688 -32.332031 C 57.429688 -24.0625 54.179688 -15.355469 42.371094 -15.355469 Z M 42.371094 -66.433594 C 21.996094 -66.433594 5.167969 -52.851562 5.167969 -32.480469 C 5.167969 -11.664062 21.554688 1.328125 42.371094 1.328125 C 63.039062 1.328125 79.425781 -11.664062 79.425781 -32.480469 C 79.425781 -52.851562 62.597656 -66.433594 42.371094 -66.433594 Z M 42.371094 -66.433594 "/></g></g></g><g fill="#221f1f" fill-opacity="1"><g transform="translate(942.150742, 233.836274)"><g><path d="M 7.675781 -11.367188 C 7.675781 -4.28125 13.433594 1.476562 20.667969 1.476562 C 27.753906 1.476562 33.660156 -4.28125 33.660156 -11.367188 C 33.660156 -18.601562 27.753906 -24.359375 20.667969 -24.359375 C 13.433594 -24.359375 7.675781 -18.601562 7.675781 -11.367188 Z M 7.675781 -11.367188 "/></g></g></g><path stroke-linecap="butt" transform="matrix(0.75, 0, 0, 0.75, 746.492248, 107.640857)" fill="none" stroke-linejoin="miter" d="M -0.0000810138 5.499691 L 306.734314 5.499691 " stroke="#000000" stroke-width="11" stroke-opacity="1" stroke-miterlimit="4"/><path stroke-linecap="butt" transform="matrix(0.75, 0, 0, 0.75, 23.872964, 262.05473)" fill="none" stroke-linejoin="miter" d="M -0.00249403 5.499944 L 306.731901 5.499944 " stroke="#000000" stroke-width="11" stroke-opacity="1" stroke-miterlimit="4"/><g fill="#221f1f" fill-opacity="1"><g transform="translate(1156.494658, 310.930996)"><g><path d="M 9.972656 -10.445312 C 9.972656 -13.199219 12.109375 -15.667969 14.957031 -15.667969 C 17.804688 -15.667969 19.941406 -13.199219 19.941406 -10.445312 C 19.941406 -7.691406 17.804688 -5.222656 14.957031 -5.222656 C 12.109375 -5.222656 9.972656 -7.691406 9.972656 -10.445312 Z M 9.972656 0 L 9.972656 -2.515625 C 11.394531 -0.378906 14.433594 0.476562 17.140625 0.476562 C 23.078125 0.476562 27.539062 -4.652344 27.539062 -10.445312 C 27.539062 -16.238281 23.078125 -21.414062 17.140625 -21.414062 C 14.433594 -21.414062 11.824219 -20.65625 9.972656 -18.375 L 9.972656 -35.613281 L 2.847656 -35.613281 L 2.847656 0 Z M 9.972656 0 "/></g></g></g><g fill="#221f1f" fill-opacity="1"><g transform="translate(1185.690308, 310.930996)"><g><path d="M 19.230469 -10.445312 C 19.230469 -7.691406 17.09375 -5.222656 14.246094 -5.222656 C 11.394531 -5.222656 9.257812 -7.691406 9.257812 -10.445312 C 9.257812 -13.199219 11.394531 -15.667969 14.246094 -15.667969 C 17.09375 -15.667969 19.230469 -13.199219 19.230469 -10.445312 Z M 26.351562 -20.890625 L 19.230469 -20.890625 L 19.230469 -18.375 C 17.378906 -20.65625 14.71875 -21.414062 12.0625 -21.414062 C 6.125 -21.414062 1.660156 -16.238281 1.660156 -10.445312 C 1.660156 -4.652344 6.125 0.476562 12.0625 0.476562 C 14.71875 0.476562 17.804688 -0.378906 19.230469 -2.515625 L 19.230469 0 L 26.351562 0 Z M 26.351562 -20.890625 "/></g></g></g><g fill="#221f1f" fill-opacity="1"><g transform="translate(1214.885959, 310.930996)"><g><path d="M 14.671875 -15.667969 C 15.765625 -15.667969 16.808594 -15.335938 17.519531 -14.480469 L 17.617188 -14.480469 L 17.617188 -20.941406 C 17.046875 -21.226562 16.097656 -21.414062 15.480469 -21.414062 C 12.867188 -21.414062 11.0625 -19.941406 9.972656 -18.375 L 9.972656 -20.941406 L 2.847656 -20.941406 L 2.847656 0 L 9.972656 0 L 9.972656 -10.445312 C 9.972656 -12.960938 12.011719 -15.667969 14.671875 -15.667969 Z M 14.671875 -15.667969 "/></g></g></g><g fill="#221f1f" fill-opacity="1"><g transform="translate(1232.973013, 310.930996)"><g/></g></g><g fill="#c29c07" fill-opacity="1"><g transform="translate(1244.842313, 310.930996)"><g><path d="M 12.394531 -8.546875 L 20.179688 -8.546875 L 20.179688 -12.488281 L 12.394531 -12.488281 L 12.394531 -20.226562 L 8.5 -20.226562 L 8.5 -12.488281 L 0.710938 -12.488281 L 0.710938 -8.546875 L 8.5 -8.546875 L 8.5 -0.757812 L 12.394531 -0.757812 Z M 12.394531 -8.546875 "/></g></g></g><g fill="#221f1f" fill-opacity="1"><g transform="translate(1265.736839, 310.930996)"><g/></g></g><g fill="#221f1f" fill-opacity="1"><g transform="translate(1277.604991, 310.930996)"><g><path d="M 14.246094 -5.222656 C 11.394531 -5.222656 9.257812 -7.691406 9.257812 -10.492188 C 9.257812 -13.246094 11.394531 -15.714844 14.246094 -15.714844 C 17.09375 -15.714844 19.230469 -13.246094 19.230469 -10.492188 C 19.230469 -7.691406 17.09375 -5.222656 14.246094 -5.222656 Z M 19.230469 -18.375 C 17.1875 -20.75 14.71875 -21.414062 12.0625 -21.414062 C 6.125 -21.414062 1.660156 -16.285156 1.660156 -10.492188 C 1.660156 -4.699219 6.125 0.476562 12.0625 0.476562 C 14.71875 0.476562 17.804688 -0.378906 19.230469 -2.5625 L 19.230469 0.757812 C 19.230469 3.75 17 6.601562 13.863281 6.601562 C 11.585938 6.601562 9.640625 5.128906 9.117188 2.660156 L 1.996094 2.660156 C 2.328125 9.023438 8.546875 11.871094 14.246094 11.871094 C 20.890625 11.871094 26.351562 6.835938 26.351562 -0.046875 L 26.351562 -20.941406 L 19.230469 -20.941406 Z M 19.230469 -18.375 "/></g></g></g><g fill="#221f1f" fill-opacity="1"><g transform="translate(1306.800641, 310.930996)"><g><path d="M 14.671875 -15.667969 C 15.765625 -15.667969 16.808594 -15.335938 17.519531 -14.480469 L 17.617188 -14.480469 L 17.617188 -20.941406 C 17.046875 -21.226562 16.097656 -21.414062 15.480469 -21.414062 C 12.867188 -21.414062 11.0625 -19.941406 9.972656 -18.375 L 9.972656 -20.941406 L 2.847656 -20.941406 L 2.847656 0 L 9.972656 0 L 9.972656 -10.445312 C 9.972656 -12.960938 12.011719 -15.667969 14.671875 -15.667969 Z M 14.671875 -15.667969 "/></g></g></g><g fill="#221f1f" fill-opacity="1"><g transform="translate(1324.887695, 310.930996)"><g><path d="M 2.46875 -28.109375 C 2.46875 -25.832031 4.320312 -23.929688 6.648438 -23.929688 C 8.925781 -23.929688 10.824219 -25.832031 10.824219 -28.109375 C 10.824219 -30.4375 8.925781 -32.289062 6.648438 -32.289062 C 4.320312 -32.289062 2.46875 -30.4375 2.46875 -28.109375 Z M 10.207031 0 L 10.207031 -20.941406 L 3.085938 -20.941406 L 3.085938 0 Z M 10.207031 0 "/></g></g></g><g fill="#221f1f" fill-opacity="1"><g transform="translate(1338.180018, 310.930996)"><g><path d="M 9.972656 0 L 9.972656 -35.613281 L 2.847656 -35.613281 L 2.847656 0 Z M 9.972656 0 "/></g></g></g><g fill="#221f1f" fill-opacity="1"><g transform="translate(1350.997618, 310.930996)"><g><path d="M 9.972656 0 L 9.972656 -35.613281 L 2.847656 -35.613281 L 2.847656 0 Z M 9.972656 0 "/></g></g></g></svg>